# xmcd
#
# Track frame offsets:
#	150
#	5065
#	26451
#	36002
#	53885
#	75114
#	82745
#	104327
#	131066
#	150407
#	162669
#	181735
#	186174
#	206863
#	224239
#	241523
#	257269
#	276288
#
# Disc length: 4049 seconds
#
# Revision: 0
# Processed by: cddbd v1.5.1PL0 Copyright (c) Steve Scherf et al.
# Submitted via: dBpowerAMP V4.0
#
DISCID=e70fcf12
DTITLE=Jill Scott - Who Is Jill Scott? Words and Sounds, Vol. 1
DYEAR=1900
DGENRE=R&B
TTITLE0=Jilltro
TTITLE1=Do You Remember
TTITLE2=Exclusively
TTITLE3=Gettin' in the Way
TTITLE4=Long Walk
TTITLE5=I Think It's Better
TTITLE6=He Loves Me (Lyzel in E Flat)
TTITLE7=It's Love
TTITLE8=Way
TTITLE9=Honey Molasses
TTITLE10=Love Rain
TTITLE11=Roots (Interlude)
TTITLE12=Slowly Surely
TTITLE13=One is the Magic # [#]
TTITLE14=Watching Me
TTITLE15=Brotha
TTITLE16=Show Me
TTITLE17=Try [*]
EXTD=
EXTT0=
EXTT1=
EXTT2=
EXTT3=
EXTT4=
EXTT5=
EXTT6=
EXTT7=
EXTT8=
EXTT9=
EXTT10=
EXTT11=
EXTT12=
EXTT13=
EXTT14=
EXTT15=
EXTT16=
EXTT17=
PLAYORDER=
